<?xml version="1.0" encoding="UTF-8" standalone="no"?>
<!-- Created with Inkscape (http://www.inkscape.org/) -->

<svg
   width="64"
   height="64"
   viewBox="0 0 16.933333 16.933333"
   version="1.1"
   id="svg5"
   sodipodi:docname="Devanagari_ॐ.svg"
   inkscape:version="1.3 (0e150ed6c4, 2023-07-21)"
   xmlns:inkscape="http://www.inkscape.org/namespaces/inkscape"
   xmlns:sodipodi="http://sodipodi.sourceforge.net/DTD/sodipodi-0.dtd"
   xmlns="http://www.w3.org/2000/svg"
   xmlns:svg="http://www.w3.org/2000/svg">
  <sodipodi:namedview
     id="namedview7"
     pagecolor="#505050"
     bordercolor="#eeeeee"
     borderopacity="1"
     inkscape:showpageshadow="0"
     inkscape:pageopacity="0"
     inkscape:pagecheckerboard="0"
     inkscape:deskcolor="#505050"
     inkscape:document-units="mm"
     showgrid="false"
     inkscape:zoom="6.7277217"
     inkscape:cx="34.409866"
     inkscape:cy="20.883741"
     inkscape:window-width="1920"
     inkscape:window-height="991"
     inkscape:window-x="-9"
     inkscape:window-y="-9"
     inkscape:window-maximized="1"
     inkscape:current-layer="layer1" />
  <defs
     id="defs2" />
  <g
     inkscape:label="Layer 1"
     inkscape:groupmode="layer"
     id="layer1">
    <path
       style="font-size:12.5654px;line-height:0.95;font-family:'Noto Serif Devanagari';-inkscape-font-specification:'Noto Serif Devanagari';text-align:center;text-anchor:middle;stroke-width:0.130757"
       d="m 11.695974,11.086552 q -0.414658,0 -0.829316,-0.201046 -0.402093,-0.213612 -0.76649,-0.540312 Q 9.7483372,10.018493 9.4970292,9.6540968 L 9.9242528,9.3022656 q 0.3015692,0.314135 0.6534012,0.5528776 0.351831,0.2387428 0.779054,0.2387428 0.376962,0 0.62827,-0.1759158 0.251308,-0.188481 0.402093,-0.4774852 0.16335,-0.2890042 0.226177,-0.6157046 0.07539,-0.3392658 0.07539,-0.6659663 0,-0.4146582 -0.100523,-0.7664894 -0.100524,-0.3643966 -0.314135,-0.5905738 -0.201047,-0.2387426 -0.515182,-0.2387426 -0.251308,0 -0.452354,0.188481 Q 11.1054,6.9274049 10.916919,7.2164091 10.741004,7.4928479 10.552523,7.8069829 10.364042,8.1211179 10.137865,8.4101222 9.9116874,8.686561 9.6101178,8.8624766 9.3085482,9.0383922 8.89389,9.0383922 8.3661432,9.0383922 8.014312,8.812215 7.6624808,8.5860378 7.2980842,8.1839449 L 7.4111728,8.0331601 q 0.1507848,0.075392 0.3392658,0.1507848 0.188481,0.062827 0.3895274,0.062827 0.4523544,0 0.753924,-0.188481 0.3015696,-0.188481 0.5151814,-0.4774852 0.2136118,-0.3015696 0.4020928,-0.62827 0.188481,-0.3392658 0.3769618,-0.62827 0.201047,-0.3015696 0.477485,-0.4774852 0.289005,-0.188481 0.691097,-0.188481 0.427224,0 0.779055,0.2010464 0.351831,0.188481 0.653401,0.5403122 0.389527,0.4146582 0.62827,0.9675358 0.238743,0.5528776 0.238743,1.2942363 0,0.6031392 -0.213612,1.1685822 -0.213612,0.5528776 -0.653401,0.9047086 -0.427224,0.351831 -1.09319,0.351831 z m -4.7999826,1.269106 q -0.8293164,0 -1.5204134,-0.490051 Q 4.6970464,11.362991 4.1692996,10.521109 3.6415528,9.6666622 3.2771562,8.5986032 l 0.6157046,-0.251308 q 0.3267004,0.879578 0.7162278,1.5329788 0.3895274,0.640835 0.8670126,1.005232 0.4900506,0.364397 1.0554936,0.364397 0.691097,0 1.0303628,-0.376962 0.3392658,-0.376962 0.3392658,-0.8921438 0,-0.4523544 -0.2261772,-0.8670126 Q 7.448869,8.6991264 7.0342108,8.3849914 L 7.4991306,8.2090757 q 0.188481,0.1256541 0.3392658,0.2764389 0.1507848,0.1382194 0.2638734,0.2764388 0.3895274,0.376962 0.5780084,0.8418818 0.2010464,0.4649198 0.2010464,0.9047088 0,0.565443 -0.2638734,0.992667 -0.251308,0.414658 -0.7036624,0.640835 -0.439789,0.213612 -1.0177974,0.213612 z M 6.255156,8.9629998 5.6771476,7.9326369 q 1.1183206,-0.3392658 1.6083712,-0.7916202 0.502616,-0.4523544 0.502616,-0.879578 0,-0.3895274 -0.251308,-0.5403122 -0.2387426,-0.1633502 -0.6031392,-0.1633502 -0.376962,0 -0.8041856,0.1382194 -0.4272236,0.125654 -0.816751,0.3267004 L 4.7347426,4.9295063 Q 5.1996624,4.6907637 5.6394514,4.5902405 6.0918058,4.4771519 6.506464,4.4771519 q 0.439789,0 0.8293164,0.2010464 0.3895274,0.188481 0.753924,0.6031392 0.251308,0.2890042 0.3895274,0.6534008 0.1507848,0.3643966 0.1507848,0.753924 0,0.7664894 -0.565443,1.3068016 Q 7.4991306,8.5232108 6.255156,8.9629998 Z M 9.9996452,4.6405021 q -0.5780084,0 -1.1057552,-0.2638734 Q 8.3661432,4.1001899 7.9891812,3.5975739 7.6122192,3.0949579 7.4237382,2.4038609 L 8.0017466,2.2028145 q 0.2387426,0.7162278 0.6785316,1.130886 0.4523544,0.4020928 1.1685822,0.4020928 0.6534006,0 1.0680586,-0.4020928 0.427224,-0.4020928 0.578009,-1.2691054 l 1.017797,0.2764388 q -0.125654,0.7413586 -0.477485,1.25654 -0.351831,0.5151814 -0.867013,0.7790548 -0.515181,0.2638734 -1.1685818,0.2638734 z m -0.188481,-1.570675 q -0.251308,0 -0.4272236,-0.1382194 -0.1633502,-0.1382194 -0.1633502,-0.4774852 0,-0.3392658 0.1633502,-0.4774852 0.1759156,-0.1382194 0.4272236,-0.1382194 0.2513078,0 0.4146578,0.1382194 0.163351,0.1382194 0.163351,0.4774852 0,0.3392658 -0.163351,0.4774852 -0.16335,0.1382194 -0.4146578,0.1382194 z"
       id="text1"
       aria-label="ॐ" />
  </g>
</svg>
